<svg xmlns="http://www.w3.org/2000/svg" viewBox="0 0 32 26"><defs><style>.cls-1{fill:#282828;}</style></defs><g id="Camada_2" data-name="Camada 2"><g id="Camada_3" data-name="Camada 3"><path class="cls-1" d="M32,3.08a13.23,13.23,0,0,1-3.77,1A6.57,6.57,0,0,0,31.12.48,13.16,13.16,0,0,1,27,2.07,6.57,6.57,0,0,0,15.59,6.56a6.69,6.69,0,0,0,.17,1.5A18.63,18.63,0,0,1,2.23,1.2a6.49,6.49,0,0,0-.89,3.3A6.58,6.58,0,0,0,4.26,10a6.47,6.47,0,0,1-3-.83v.09a6.56,6.56,0,0,0,5.26,6.43,6.57,6.57,0,0,1-1.73.23,7.12,7.12,0,0,1-1.23-.11,6.59,6.59,0,0,0,6.13,4.56,13.19,13.19,0,0,1-8.15,2.81A13.51,13.51,0,0,1,0,23.06,18.62,18.62,0,0,0,10.06,26C22.14,26,28.74,16,28.74,7.33c0-.29,0-.57,0-.85A13.42,13.42,0,0,0,32,3.08Z"/></g></g></svg>